<?xml version="1.0" encoding="utf-8"?>
<!DOCTYPE svg PUBLIC "-//W3C//DTD SVG 1.0//EN" "http://www.w3.org/TR/2001/REC-SVG-20010904/DTD/svg10.dtd">
<svg version="1.0" xmlns="http://www.w3.org/2000/svg" width="365px" height="247px" viewBox="0 0 365 247" preserveAspectRatio="xMidYMid meet">
 <g fill="#21633d">
  <path d="M163.5 242.4 c-13.4 -1.2 -30.3 -4 -47.1 -7.9 -4.4 -1 -23.8 -7.7 -29.2 -10.1 -35.7 -15.5 -59.8 -35.8 -72.5 -60.9 -5.8 -11.6 -7.8 -19.2 -8.4 -32.5 -0.5 -9.8 -0.2 -12.8 1.7 -20.5 1.9 -7.8 8.9 -24 11.9 -27.8 0.6 -0.6 3.4 -4.1 6.2 -7.7 4.5 -5.5 13.6 -14.8 18.9 -19.2 3.6 -3 8.9 -6.8 9.5 -6.8 0.3 0 2.1 -1.1 3.8 -2.4 5.4 -4.1 25.7 -14 38 -18.6 6.4 -2.4 11.7 -4.6 11.7 -4.9 0 -0.3 -2.5 -3.4 -5.5 -6.8 -5.6 -6.2 -6.8 -9.5 -3.9 -11.1 1.6 -0.9 4.5 -0.5 36.9 4.9 16.4 2.8 20.3 3.1 44.5 3.3 28.8 0.3 38.6 1.2 58.5 5.6 40.1 8.9 72.2 25.3 94.8 48.5 12.6 12.9 20.6 26.9 24.7 43 5.2 20.6 -0.1 46.4 -13 63.5 -1.4 1.9 -3.3 4.6 -4.2 6 -2 3.1 -14.4 15.6 -18.8 19 -1.8 1.4 -3.8 3 -4.4 3.5 -2.6 2.3 -16 10.7 -23.7 14.9 -12.6 6.7 -35.5 15.3 -48.4 18.1 -1.6 0.3 -5 1.1 -7.5 1.6 -15.2 3.4 -29.7 4.9 -49.5 5.2 -11.5 0.2 -22.8 0.2 -25 0.1z m-58.6 -62.3 l-2.4 -1.9 0 -49.6 0 -49.6 -11.4 0 c-9 0 -11.2 0.3 -10.3 1.2 1.7 1.7 1.7 98.9 0 100.6 -0.9 0.9 1.9 1.2 12.6 1.2 13.8 0 13.8 0 11.5 -1.9z m31.6 -2.1 c8.4 -2.9 13.3 -6 19.6 -12.6 11.5 -12.2 16.3 -29.8 12.4 -46.2 -4.5 -18.8 -18 -32.9 -36.2 -37.6 -7.3 -1.9 -11.3 -2 -6.2 -0.2 6.7 2.4 11 6.7 15.4 15.4 4 8 5.5 17.5 5.5 35 0 24.2 -3.4 36 -12.7 44.2 -2.5 2.2 -4.4 4 -4.1 4 0.3 0 3.1 -0.9 6.3 -2z m78 -65.8 c4.6 -3.2 8 -7.9 9.7 -13.3 2.3 -7.8 -4.8 -18.7 -14.6 -22.4 -4.4 -1.7 -4.8 -1.7 -9.2 0 -12.3 4.7 -18.4 16.7 -13.5 26.3 6.2 12.2 17.8 16.1 27.6 9.4z m113.3 -11.1 c0.9 -0.5 -3.1 -3.8 -13.5 -11 -8.1 -5.6 -19.3 -13.3 -24.9 -17.2 l-10 -6.9 -26.2 4 c-14.4 2.2 -26.7 4 -27.3 4 -0.6 0 0 1.3 1.3 2.9 1.9 2.3 3.3 2.9 7.9 3.4 6.3 0.6 11.2 2.8 22.1 10.2 8.4 5.7 8.9 5.8 20.7 2.5 7.4 -2 11.1 -1.2 20.1 4.6 l8.5 5.4 9.9 -0.6 c5.5 -0.3 10.6 -0.9 11.4 -1.3z m-129.5 -33.7 c0.7 -0.7 -1.1 -3.1 -14.5 -20.4 -5.3 -6.9 -12.7 -15.5 -16.5 -19.2 l-6.8 -6.7 -24.9 -4.1 c-13.7 -2.2 -25 -3.9 -25.2 -3.7 -0.1 0.1 2.3 3.2 5.4 6.9 3.8 4.4 7.2 7.3 10.2 8.6 4.6 2 5.4 2.3 12.7 4.2 3.7 0.9 4.9 2 10.7 10.5 l6.6 9.4 5.7 1.1 c21.4 4.1 25.6 5.6 28.5 10.7 1.5 2.5 2.7 3.3 4.7 3.3 1.5 0 3 -0.3 3.4 -0.6z"/>
 </g>
 <g fill="#fefefe">
  <path d="M158.5 234.3 c-52 -6.1 -89.1 -21 -115.9 -46.4 -19.9 -18.8 -28.9 -37.4 -29 -59.9 -0.1 -22 8.6 -40.3 28 -59 15 -14.4 36.5 -27.1 60.6 -35.5 8.8 -3.1 11 -3.5 12.3 -2.5 0.8 0.7 1.5 1.6 1.5 1.9 0 0.4 -5.1 2.4 -11.3 4.5 -20.8 6.8 -42.2 18.5 -56.9 30.9 -20.3 17.3 -32.1 42.3 -30.4 64.3 3.7 48.2 56.5 86.8 132.6 97 15.1 2 47.7 2.3 63 0.5 35.2 -4.1 67.8 -15.1 92.1 -31.2 11.1 -7.4 26.9 -22.7 32.7 -31.8 8.5 -13.2 13 -30 11.8 -43.9 -4.9 -53.2 -71.2 -94.6 -156.8 -97.9 -14.5 -0.5 -17 -0.9 -18.4 -2.5 -1.6 -1.7 -1.5 -1.8 3.2 -1.9 21.1 -0.4 37.3 0.9 56.9 4.7 50.5 9.8 94 37.4 110.3 69.9 5.8 11.7 7.7 19.7 7.6 33 -0.1 14.3 -2.5 22.9 -10.1 36.5 -6.3 11.2 -22.9 28.1 -36.3 36.9 -24.8 16.5 -57 27.5 -91.6 31.6 -11.6 1.3 -47.1 1.9 -55.9 0.8z"/>
  <path d="M223.5 157.7 c-5.1 -24.2 -6.3 -28.5 -8.4 -30.4 l-2.4 -2.3 6.8 0 c6.7 0 6.8 0 5.1 1.9 -1.7 1.9 -1.6 2.8 1.9 20.3 2.1 10.1 4.1 18.9 4.5 19.7 0.7 1.3 2 -3.8 5.1 -19.4 1.4 -7.1 0 -15.9 -3.2 -19.9 l-2 -2.6 6.8 0 c5.9 0.1 6.6 0.2 5.1 1.4 -1 0.7 -1.8 2.6 -1.8 4.2 0 4.9 7.3 38.6 8.1 37.2 0.4 -0.7 2.4 -9.8 4.5 -20.1 l3.8 -18.9 -2.5 -1.9 -2.4 -1.9 5.3 0 c5.4 0 6.2 0.5 3.7 2.4 -1 0.7 -3.6 10.9 -7.5 29.5 -3.3 15.6 -6.2 28.6 -6.4 28.9 -0.6 0.5 -1.8 -4.1 -5.1 -20.3 -3.1 -14.9 -3.4 -16 -4 -15.3 -0.3 0.2 -2.1 8.1 -4.1 17.4 -1.9 9.3 -3.9 17.2 -4.3 17.6 -0.3 0.4 -3.3 -12 -6.6 -27.5z"/>
  <path d="M267 183 c-7.5 -8 -6.2 -34.6 1.9 -39 6.3 -3.3 13.1 3 13.1 12.1 l0 2.9 -8 0 -8 0 0 4.8 c0 2.6 0.9 6.6 1.9 8.9 3.5 7.6 8.9 8.1 12.2 1 1.4 -3.2 1.9 -3.7 1.9 -1.9 0 3.1 -2.6 9.2 -5.2 11.9 -3 3.2 -6.4 2.9 -9.8 -0.7z m9.2 -30 c-0.3 -3.6 -2.6 -7 -4.8 -7 -2.1 0 -5.4 5 -5.4 8.2 0 2.9 0 2.9 5.3 2.6 l5.2 -0.3 -0.3 -3.5z"/>
  <path d="M64 183.6 c0 -1.2 1.1 -1.6 4.4 -1.6 3.3 0 5.2 -0.7 7.5 -2.6 l3.1 -2.6 0 -46.2 0 -46.3 -2.5 -2.3 c-1.6 -1.5 -4.1 -2.4 -7.5 -2.8 -3.5 -0.3 -5 -0.9 -5 -1.9 0 -2.3 63 -1.3 71.4 1.1 23.5 6.8 37.6 26.4 37.6 52.1 0 16.2 -5.3 29.6 -15.4 39.3 -6.8 6.6 -10.8 8.9 -21.1 12.3 -6.6 2.2 -8.7 2.3 -39.7 2.7 -29.3 0.3 -32.8 0.2 -32.8 -1.2z m59.2 -5.8 c9 -2.7 16.4 -12.8 19.3 -26.3 1.9 -9.2 1.9 -30.3 0 -39.5 -2.6 -12.4 -9 -22.6 -16.5 -26.5 -3.6 -1.9 -17.1 -4.1 -19.4 -3.2 -1.6 0.6 -1.7 4.3 -1.4 46.8 l0.3 46.1 2.4 1.9 c2.7 2.2 9.3 2.5 15.3 0.7z"/>
  <path d="M286 184.4 c0 -0.4 0.8 -1.3 1.8 -2 1.5 -1.1 1.7 -3.6 2 -22.5 0.4 -23.9 -0.2 -31.9 -2.4 -31.9 -2.4 0 -1.5 -1.7 2 -3.9 1.8 -1.2 3.6 -2.1 4 -2.1 0.3 0 0.6 13 0.6 28.9 0 15.9 0.3 29.6 0.6 30.5 0.3 0.9 1.2 1.6 2 1.6 0.8 0 1.4 0.5 1.4 1 0 0.6 -2.7 1 -6 1 -3.3 0 -6 -0.3 -6 -0.6z"/>
  <path d="M301 184.5 c0 -0.3 0.9 -1.4 2 -2.5 1.9 -1.9 2 -3.3 2 -27.6 0 -24.7 -0.1 -25.6 -2 -26.1 -1.1 -0.3 -2 -0.9 -2 -1.3 0 -0.8 6.2 -5 7.4 -5 0.3 0 0.6 13.1 0.6 29 0 27.7 0.1 29.1 2 31 1.1 1.1 2 2.2 2 2.5 0 0.3 -2.7 0.5 -6 0.5 -3.3 0 -6 -0.2 -6 -0.5z"/>
  <path d="M195.2 117 c-8.3 -3.8 -13.2 -11.5 -13.2 -21 0 -10.4 4.3 -17.2 13.5 -21.6 19.4 -9.2 39.3 11.4 30.1 31.2 -5.4 11.5 -18.9 16.6 -30.4 11.4z"/>
  <path d="M226.5 83 c-0.3 -1 -2.9 -4 -5.7 -6.5 -5.5 -5 -4.1 -6.5 1.9 -1.9 4 3 8.2 10.4 5.9 10.4 -0.8 0 -1.7 -0.9 -2.1 -2z"/>
  <path d="M194 71.1 c0 -1.2 3.7 -2.1 8.5 -2 4 0.1 4 0.1 -1.5 1.4 -6.7 1.7 -7 1.7 -7 0.6z"/>
 </g>
 <g fill="#ffed00">
  <path d="M295.6 100.9 l-9.9 -6.1 -6.2 1.6 c-3.4 0.8 -8.6 1.8 -11.6 2.2 -5.3 0.6 -5.6 0.5 -13.4 -4.9 -13.6 -9.2 -19.5 -11.6 -24.1 -9.5 -2.3 1.1 -2.8 1 -3.2 -0.2 -0.3 -0.8 -2.9 -3.9 -5.8 -6.7 -3 -2.9 -5 -5.3 -4.6 -5.3 0.4 0 15.1 -2.2 32.6 -4.9 l32 -4.8 10 6.9 c5.6 3.8 18.4 12.7 28.5 19.7 10.2 7 18.6 13.2 18.8 13.8 0.2 0.5 -5 1.5 -12.4 2.2 -7.1 0.6 -14.6 1.4 -16.8 1.7 -3.5 0.4 -5.2 -0.3 -13.9 -5.7z"/>
  <path d="M191.7 71.2 c-1.5 -0.4 -3.5 -2 -4.6 -3.8 -2.9 -4.8 -7.2 -6.4 -28.4 -10.4 l-5.7 -1.1 -6.6 -9.4 c-5.8 -8.5 -7 -9.6 -10.7 -10.5 -7.3 -1.9 -8.1 -2.2 -12.7 -4.2 -3.3 -1.4 -6.7 -4.6 -13 -11.8 -9.8 -11.5 -10.4 -12.4 -6.4 -11.6 1.6 0.3 15.7 2.6 31.4 5.1 l28.5 4.6 6.8 6.7 c3.8 3.7 10.3 11.2 14.6 16.7 16.5 21.4 21.1 27.4 21.1 27.8 0 0.3 -1.7 0.7 -3.7 1.1 -2.1 0.3 -4.7 0.8 -5.8 1 -1.1 0.2 -3.2 0.1 -4.8 -0.2z"/>
 </g>
</svg>