<?xml version="1.0" encoding="utf-8"?>
<!DOCTYPE svg PUBLIC "-//W3C//DTD SVG 1.0//EN" "http://www.w3.org/TR/2001/REC-SVG-20010904/DTD/svg10.dtd">
<svg version="1.0" xmlns="http://www.w3.org/2000/svg" width="365px" height="247px" viewBox="0 0 365 247" preserveAspectRatio="xMidYMid meet">
 <g fill="#000000">
  <path d="M163.5 242.4 c-13.4 -1.2 -30.3 -4 -47.1 -7.9 -4.4 -1 -23.8 -7.7 -29.2 -10.1 -35.7 -15.5 -59.8 -35.8 -72.5 -60.9 -5.8 -11.6 -7.8 -19.2 -8.4 -32.5 -0.5 -9.8 -0.2 -12.8 1.7 -20.5 1.9 -7.8 8.9 -24 11.9 -27.8 0.6 -0.6 3.4 -4.1 6.2 -7.7 4.5 -5.5 13.6 -14.8 18.9 -19.2 3.6 -3 8.9 -6.8 9.5 -6.8 0.3 0 2.1 -1.1 3.8 -2.4 5.4 -4.1 25.7 -14 38 -18.6 6.4 -2.4 11.7 -4.6 11.7 -4.9 0 -0.3 -2.5 -3.4 -5.5 -6.8 -5.6 -6.2 -6.8 -9.5 -3.9 -11.1 1.6 -0.9 4.5 -0.5 36.9 4.9 16.4 2.8 20.3 3.1 44.5 3.3 28.8 0.3 38.6 1.2 58.5 5.6 40.1 8.9 72.2 25.3 94.8 48.5 12.6 12.9 20.6 26.9 24.7 43 5.2 20.6 -0.1 46.4 -13 63.5 -1.4 1.9 -3.3 4.6 -4.2 6 -2 3.1 -14.4 15.6 -18.8 19 -1.8 1.4 -3.8 3 -4.4 3.5 -2.6 2.3 -16 10.7 -23.7 14.9 -12.6 6.7 -35.5 15.3 -48.4 18.1 -1.6 0.3 -5 1.1 -7.5 1.6 -15.2 3.4 -29.7 4.9 -49.5 5.2 -11.5 0.2 -22.8 0.2 -25 0.1z m-57.5 -61.7 l-2.5 -1.3 -0.3 -50.2 -0.2 -50.2 -11.5 0 c-11.1 0 -11.5 0.1 -10.5 1.9 1.4 2.7 1.4 96.5 0 99.2 -1 1.8 -0.6 1.9 13.2 1.9 12.2 0 13.9 -0.2 11.8 -1.3z m28.9 -2.1 c14.1 -4.8 23.5 -12.4 28.9 -23.6 8.2 -16.8 8.2 -32.1 0.1 -48.8 -5.8 -11.9 -17.5 -21 -31.6 -24.7 -6.2 -1.6 -12.1 -2 -6.7 -0.4 8.8 2.5 17.4 15.2 19.9 29.5 1.7 9.3 1.9 31.2 0.5 40.2 -2.2 13.2 -8 23.6 -15.5 27.9 -5.1 2.9 -4.3 2.9 4.4 -0.1z m75.9 -64.2 c7.4 -3 14.1 -12 14.2 -18.8 0 -7.3 -8 -17.1 -16 -19.5 -6.3 -1.9 -11.4 0 -17.6 6.3 -6.1 6.3 -7.7 11.1 -5.8 17.4 1.8 6.1 5.6 10.6 11.6 13.6 6 3 8.4 3.2 13.6 1z m115.7 -13.2 c2.4 -0.7 0.9 -2 -17.2 -14.4 -10.9 -7.5 -22.1 -15.3 -24.8 -17.2 -5 -3.5 -5.1 -3.6 -11 -2.6 -10 1.7 -45.4 7 -46.6 7 -0.5 0 -0.2 1.3 0.8 3 1.5 2.6 2.3 3 6.3 3 6.4 0.1 10.6 1.9 21.1 9 l9.3 6.3 10.1 -1.7 c5.5 -0.9 11.1 -1.6 12.5 -1.6 1.4 0 6.3 2.5 11 5.5 l8.5 5.4 8.7 -0.5 c4.8 -0.3 9.9 -0.9 11.3 -1.2z m-206.7 -21.9 c-1.6 -0.2 -4 -0.2 -5.5 0 -1.6 0.2 -0.3 0.4 2.7 0.4 3 0 4.3 -0.2 2.8 -0.4z m78.4 -12.8 c-0.7 -2.5 -25.7 -33.6 -31.4 -39.2 l-6.3 -6.1 -25 -4.1 c-13.7 -2.2 -25 -3.9 -25.2 -3.8 -0.1 0.2 2.8 3.5 6.5 7.5 5.9 6.4 7.5 7.6 13.7 9.7 3.9 1.4 8 2.5 9.2 2.5 2.3 0 5 3.1 12.1 13.6 l4.1 6.2 12.2 2.3 c13.8 2.5 19.5 5 22.4 9.6 1.6 2.7 2.6 3.2 5 3 1.7 -0.1 2.9 -0.6 2.7 -1.2z"/>
 </g>
 <g fill="#ffffff">
  <path d="M169 235.4 c-70.9 -4.1 -132.3 -36.7 -150.3 -79.9 -20 -47.8 14.7 -98.5 83.6 -122.1 10.5 -3.6 10.8 -3.6 12.8 -1.8 2 1.8 1.8 1.9 -10.7 6.1 -40.8 13.6 -70.8 37.5 -82.1 65.4 -8.2 20.3 -6.2 41.9 5.7 62.1 5.3 8.9 21.3 25.2 32.1 32.5 21.2 14.5 52.1 25.9 83.4 30.9 13.7 2.2 51.9 3 67.1 1.4 45 -4.5 84.8 -20.4 110.5 -43.9 25.4 -23.2 34.2 -52.2 24.5 -80.2 -3.9 -11.3 -10 -20.4 -21 -31.5 -29.3 -29.5 -75.2 -46.4 -133.1 -49 -14.8 -0.7 -18.5 -1.6 -18.5 -4.7 0 -1.3 29.9 -0.1 44 1.7 76.3 10.2 132.8 52.2 135.7 101 1 16.8 -3 30.8 -13.3 46.2 -21.6 32.5 -68.4 56.9 -122.4 63.8 -12.2 1.6 -37.2 2.6 -48 2z"/>
  <path d="M229 185.3 c0 -0.5 -2.7 -13.4 -6 -28.8 -4.9 -22.7 -6.4 -28.3 -8 -29.5 -2.9 -2.2 -1.6 -3 5.1 -3 6.5 0 7.7 0.9 4.8 3.3 -1.3 1.1 -1.8 2.5 -1.4 4 0.3 1.2 2.1 9.8 4 19.1 3 14.7 4.5 20.2 4.5 17 0 -0.5 1.2 -6.3 2.6 -12.9 2.3 -10.9 2.4 -12.6 1.3 -18.4 -0.8 -4.4 -1.9 -7.2 -3.5 -8.6 -1.3 -1.2 -2.1 -2.5 -1.7 -2.8 0.8 -0.9 10.6 -0.9 12.8 -0.1 1.4 0.6 1.3 0.8 -0.5 2.1 -1.1 0.8 -2 2.4 -2 3.6 0 3.9 7.3 37.8 8 37 1.2 -1.4 8 -37.1 7.4 -38.7 -0.3 -0.9 -1.2 -1.6 -2 -1.6 -0.8 0 -1.4 -0.7 -1.4 -1.5 0 -1.2 1.1 -1.5 5 -1.4 5.1 0.2 7.4 1.4 4.6 2.5 -2.1 0.8 -2.8 3.5 -8.6 30.9 -6.2 30.1 -6 29 -6.9 27.9 -0.4 -0.5 -2.3 -7.9 -4.1 -16.4 -4.1 -19.3 -4.5 -20.5 -5.3 -15.9 -3.1 15.7 -7.1 32.9 -7.8 32.9 -0.5 0 -0.9 -0.3 -0.9 -0.7z"/>
  <path d="M267 183.2 c-3.6 -3.7 -5 -8.8 -5 -18.8 0 -15.6 5.9 -24.1 14.5 -20.8 2.4 1 5.5 7.8 5.5 12.4 l0 4 -8.1 0 -8.2 0 0.6 5.5 c1 9.7 6.2 15.3 10.8 11.6 1.3 -1 2.9 -3.4 3.5 -5.2 l1.2 -3.4 0.1 3 c0.1 3.8 -4.1 13 -6.4 13.8 -3.2 1.3 -5.7 0.7 -8.5 -2.1z m9.2 -29.7 c-0.4 -3.6 -2.8 -7.5 -4.6 -7.5 -2.1 0 -4.6 3.5 -5.3 7.4 l-0.6 3.7 5.4 -0.3 c5.3 -0.3 5.4 -0.3 5.1 -3.3z"/>
  <path d="M64 183.6 c0 -0.9 1.7 -1.5 5.2 -1.8 4 -0.4 5.7 -1.1 7.5 -3.2 l2.3 -2.7 0 -45 c0 -30.4 -0.4 -45.7 -1.1 -47.1 -1.3 -2.4 -6.7 -4.8 -10.9 -4.8 -2 0 -3 -0.5 -3 -1.5 0 -2.2 55.2 -2.2 66.6 0 26.7 5.1 42.4 24.7 42.4 53 0 27.7 -14.6 46.4 -41.1 52.9 -9 2.2 -67.9 2.4 -67.9 0.2z m63.2 -7.8 c11 -6.1 16.8 -21.4 16.8 -44.3 -0.1 -20.1 -4.7 -34.6 -13.7 -42.4 -5 -4.4 -8.4 -5.6 -18.1 -6.4 l-6.2 -0.5 0.2 47.1 0.3 47.1 2.5 1.4 c3.6 1.9 13 0.9 18.2 -2z"/>
  <path d="M286 184.1 c0 -0.5 0.7 -1.1 1.5 -1.5 2.3 -0.8 2.3 -54.6 0 -54.6 -0.8 0 -1.5 -0.4 -1.5 -0.9 0 -1.2 5.4 -5.1 6.9 -5.1 0.8 0 1.1 8.6 1.1 29 0 27.7 0.1 29.1 2 31 1.1 1.1 2 2.2 2 2.5 0 0.3 -2.7 0.5 -6 0.5 -3.3 0 -6 -0.4 -6 -0.9z"/>
  <path d="M301 184.4 c0 -0.4 0.8 -1.3 1.8 -2 1.5 -1.1 1.7 -3.6 2 -22.6 0.4 -24.1 -0.2 -31.8 -2.4 -31.8 -0.8 0 -1.4 -0.4 -1.4 -0.8 0 -1 5.6 -5.2 6.9 -5.2 0.7 0 1.1 10.8 1.3 29.6 0.3 26.8 0.5 29.7 2.1 30.8 2.8 2.1 2 2.6 -4.3 2.6 -3.3 0 -6 -0.3 -6 -0.6z"/>
  <path d="M194.1 116.4 c-9.7 -4.9 -14.7 -15.7 -12.1 -26.4 1.6 -6.8 9.4 -15.2 15.5 -16.9 16.1 -4.4 30.5 6.3 30.5 22.5 -0.1 17.9 -17.8 28.8 -33.9 20.8z"/>
  <path d="M295.9 101 l-9.6 -6 -11.6 2.2 -11.7 2.2 -10.2 -6.9 c-12 -8.1 -17.7 -10.4 -22 -8.7 -2.7 1 -3 0.8 -5.3 -2.6 -1.4 -2 -4.1 -4.8 -6.1 -6.2 -2 -1.3 -3.2 -2.5 -2.8 -2.7 1.2 -0.4 46.8 -7.2 57.1 -8.6 l8.2 -1.1 5.3 3.8 c2.9 2.1 15.8 11 28.6 19.7 12.7 8.8 23.2 16.4 23.2 16.8 0 0.4 -6.2 1.2 -13.7 1.9 -7.6 0.7 -15.1 1.5 -16.8 1.7 -2.4 0.4 -5 -0.8 -12.6 -5.5z"/>
  <path d="M192 71.3 c-1.5 -0.3 -3.3 -1.8 -4.5 -3.6 -2.9 -4.6 -8.6 -7.1 -22.4 -9.6 l-12.2 -2.3 -4.1 -6.2 c-7.8 -11.6 -9.5 -13.3 -13.7 -14 -2.1 -0.3 -6.5 -1.6 -9.6 -2.8 -5 -1.9 -7 -3.6 -15.1 -12.7 -5.2 -5.8 -9.4 -11 -9.4 -11.5 0 -0.4 1 -0.6 2.3 -0.3 1.2 0.3 15.3 2.6 31.2 5.2 l29 4.7 6.4 6.1 c3.4 3.4 13.1 15 21.3 25.7 l15 19.5 -3.8 0.7 c-6.7 1.3 -7.8 1.5 -10.4 1.1z"/>
 </g>
</svg>